<?xml version="1.0" encoding="UTF-8"?>
<svg width="179px" height="30px" viewBox="0 0 179 30" version="1.1" xmlns="http://www.w3.org/2000/svg" xmlns:xlink="http://www.w3.org/1999/xlink">
    <title>logo_full_sm</title>
    <g id="Page-1" stroke="none" stroke-width="1" fill="none" fill-rule="evenodd">
        <path d="M0.043044367,18.7071429 C0.043044367,20.7928676 0.530875647,22.678563 1.50655284,24.3642857 C2.48223004,26.0500084 3.87398399,27.3714238 5.68185644,28.3285714 C7.48972889,29.2857191 9.5845338,29.7642857 11.966334,29.7642857 C14.3768306,29.7642857 16.5003315,29.2857191 18.3369003,28.3285714 C20.1734692,27.3714238 21.5939191,26.0571512 22.5982927,24.3857143 C23.6026662,22.7142774 24.1048455,20.8214391 24.1048455,18.7071429 L24.1048455,0.15 L18.4660334,0.15 L18.4660334,18.2785714 C18.4660334,20.5357256 17.8849403,22.2571369 16.7227366,23.4428571 C15.5605328,24.6285774 14.0037771,25.2214286 12.0524227,25.2214286 C10.1010684,25.2214286 8.54431265,24.6428629 7.38210893,23.4857143 C6.21990521,22.3285656 5.63881207,20.5928687 5.63881207,18.2785714 L5.63881207,0.15 L0,0.15 L0.043044367,18.7071429 Z M39.7729951,19.4847169 L36.5446675,19.4847169 L36.5446675,29.8285722 L30.9919442,29.8285722 L30.9919442,0.15 L40.1603944,0.15 C43.6039609,0.15 46.3946428,0.928327322 48.5325237,2.48500532 C50.6704047,4.04168331 51.7393291,6.43485797 51.7393291,9.6646011 C51.7393291,11.8177632 51.1869319,13.636285 50.082121,15.120221 C48.97731,16.604157 47.5209902,17.7025442 45.7131177,18.4154154 C43.9052453,19.1282867 41.9252242,19.4847169 39.7729951,19.4847169 Z M44.3572202,5.95714286 C43.3671948,5.17142464 41.9108749,4.77857143 39.9882169,4.77857143 L36.5446675,4.77857143 L36.5446675,14.55 L40.0743056,14.55 C41.7960889,14.55 43.1591469,14.1571468 44.1635205,13.3714286 C45.1678941,12.5857104 45.7274653,11.4071507 45.8422508,9.83571429 C45.8422508,8.03570529 45.3472455,6.74286107 44.3572202,5.95714286 Z M58.9923049,29.0711219 C60.7858292,29.590377 62.285193,29.8500007 63.4904413,29.8500007 C65.7861523,29.8500007 67.7589994,29.5131916 69.4090417,28.8395634 C71.059084,28.1659352 72.3073582,27.2397103 73.1539016,26.0608609 C74.0004451,24.8820116 74.4237105,23.5207417 74.4237105,21.9770104 C74.4237105,20.6016861 74.086533,19.4018039 73.4121678,18.3773276 C72.7378027,17.3528514 71.898446,16.4827613 70.8940724,15.7670314 C69.8896988,15.0513014 68.5409888,14.2162956 66.8479019,13.261989 L65.5996152,12.5462626 L64.2221955,11.7884347 C62.7586797,10.9463994 61.7041033,10.2517307 61.0584345,9.70440783 C60.4127658,9.15708491 60.0899363,8.47644995 60.0899363,7.66248254 C60.0899363,6.70817591 60.4988537,5.98543982 61.3167007,5.49425259 C62.1345478,5.00306535 63.1891242,4.75747542 64.4804617,4.75747542 C65.5996208,4.75747542 66.6398493,4.91184624 67.6011783,5.2205925 C68.5625073,5.52933876 69.6314317,5.96438378 70.8079836,6.52574062 L72.6588914,2.14717917 C69.6170743,0.715719234 66.8622623,0 64.394373,0 C62.2995366,0 60.4988653,0.329792196 58.9923049,0.989386481 C57.4857445,1.64898077 56.3307322,2.56117195 55.5272334,3.72598739 C54.7237345,4.89080283 54.3219911,6.20295476 54.3219911,7.66248254 C54.3219911,9.03780679 54.7309085,10.2797902 55.5487556,11.3884699 C56.3666026,12.4971497 57.3422652,13.4584588 58.4757725,14.2724263 C59.6092798,15.0863937 61.1373396,16.0547197 63.0599976,17.1774334 L64.3513286,17.9352613 C65.8148444,18.7211609 66.8981168,19.4017959 67.6011783,19.9771866 C68.3042398,20.5525774 68.6557653,21.1911112 68.6557653,21.8928072 C68.6557653,22.9032496 68.210978,23.6751036 67.3213899,24.2083926 C66.4318019,24.7416816 65.1261358,25.0083221 63.4043525,25.0083221 C62.2851934,25.0083221 61.0512672,24.8048333 59.702537,24.3978496 C58.3538067,23.9908659 57.1485765,23.5207366 56.0868101,22.9874476 L54.8385235,27.4081106 C55.8142007,27.9975353 57.1987807,28.5518669 58.9923049,29.0711219 Z M94.9128291,0.548819608 C93.420617,0.240081183 92.1579948,0.0857142857 91.1249249,0.0857142857 C88.3126788,0.0857142857 85.8376525,0.724231905 83.6997716,2.0012863 C81.5618906,3.27834069 79.9118731,5.05356001 78.7496694,7.3269975 C77.5874656,9.60043499 77.0063725,12.1966055 77.0063725,15.115587 C77.0063725,17.9223 77.5372477,20.441287 78.5990141,22.6726238 C79.6607804,24.9039606 81.2390581,26.6651466 83.3338944,27.9562346 C85.4287308,29.2473225 87.953975,29.8928568 90.909703,29.8928568 C92.1723441,29.8928568 93.58562,29.7244566 95.1495732,29.387651 C96.7135263,29.0508455 98.0407144,28.6017781 99.1311771,28.0404355 L97.0220031,23.9987891 C94.869774,24.8688701 92.7319252,25.3039041 90.6083924,25.3039041 C89.0013947,25.3039041 87.6096408,24.8478201 86.4330889,23.9356384 C85.2565369,23.0234566 84.3597883,21.7885215 83.7428159,20.2307958 C83.1258436,18.6730701 82.817362,16.9539842 82.817362,15.0734865 C82.817362,12.9684518 83.1688875,11.1300824 83.871949,9.55832314 C84.5750105,7.98656389 85.5434991,6.77969542 86.7774438,5.93768153 C88.0113885,5.09566765 89.4031424,4.67466702 90.9527474,4.67466702 C91.9284246,4.67466702 92.7462594,4.73781711 93.4062763,4.8641192 C94.0662932,4.99042128 94.9558679,5.22197163 96.0750271,5.55877718 L97.1511362,5.85348057 L98.8729109,1.93813557 C97.7250554,1.32065872 96.4050413,0.857558032 94.9128291,0.548819608 Z M141.809667,19.4847169 L138.581339,19.4847169 L138.581339,29.8285722 L133.028616,29.8285722 L133.028616,0.15 L142.197066,0.15 C145.640633,0.15 148.431315,0.928327322 150.569196,2.48500532 C152.707077,4.04168331 153.776001,6.43485797 153.776001,9.6646011 C153.776001,11.8177632 153.223604,13.636285 152.118793,15.120221 C151.013982,16.604157 149.557662,17.7025442 147.74979,18.4154154 C145.941917,19.1282867 143.961896,19.4847169 141.809667,19.4847169 Z M146.393892,5.95714286 C145.403867,5.17142464 143.947547,4.77857143 142.024889,4.77857143 L138.581339,4.77857143 L138.581339,14.55 L142.110978,14.55 C143.832761,14.55 145.195819,14.1571468 146.200192,13.3714286 C147.204566,12.5857104 147.764137,11.4071507 147.878923,9.83571429 C147.878923,8.03570529 147.383917,6.74286107 146.393892,5.95714286 Z M114.605627,0 C122.926089,0 129.671155,6.71572875 129.671155,15 C129.671155,23.2842712 122.926089,30 114.605627,30 C106.285165,30 99.5400986,23.2842712 99.5400986,15 C99.5400986,6.71572875 106.285165,0 114.605627,0 Z M175.986894,0.15 L176.847782,4.60178584 L164.063605,4.60178584 L164.063605,12.5888134 L173.619454,12.5888134 L174.523386,17.0842442 L164.063605,17.0842442 L164.063605,25.4204314 L178.096068,25.4204314 L179,29.8285722 L158.510881,29.8285722 L158.510881,0.15 L175.986894,0.15 Z M114.605627,4.82142857 C108.9596,4.82142857 104.38259,9.37853023 104.38259,15 C104.38259,20.6214698 108.9596,25.1785714 114.605627,25.1785714 C120.251655,25.1785714 124.828664,20.6214698 124.828664,15 C124.828664,9.37853023 120.251655,4.82142857 114.605627,4.82142857 Z M114.605627,10.7142857 C116.982902,10.7142857 118.910064,12.6330654 118.910064,15 C118.910064,17.3669346 116.982902,19.2857143 114.605627,19.2857143 C112.228352,19.2857143 110.30119,17.3669346 110.30119,15 C110.30119,12.6330654 112.228352,10.7142857 114.605627,10.7142857 Z M112.991463,12.3214286 C112.397145,12.3214286 111.915354,12.8011235 111.915354,13.3928571 C111.915354,13.9845908 112.397145,14.4642857 112.991463,14.4642857 C113.585782,14.4642857 114.067572,13.9845908 114.067572,13.3928571 C114.067572,12.8011235 113.585782,12.3214286 112.991463,12.3214286 Z" id="logo_full_sm" fill="#050118"></path>
    </g>
</svg>